<?xml version="1.0" standalone="no"?>
<!DOCTYPE svg PUBLIC "-//W3C//DTD SVG 20010904//EN"
 "http://www.w3.org/TR/2001/REC-SVG-20010904/DTD/svg10.dtd">
<svg version="1.0" xmlns="http://www.w3.org/2000/svg"
 width="700.000000pt" height="700.000000pt" viewBox="0 0 700.000000 700.000000"
 preserveAspectRatio="xMidYMid meet">
<metadata>
Created by potrace 1.11, written by Peter Selinger 2001-2013
</metadata>
<g transform="translate(0.000000,700.000000) scale(0.100000,-0.100000)"
fill="#000000" stroke="none">
<path d="M1970 3549 l0 -2029 397 2 398 3 0 2025 0 2025 -397 2 -398 2 0
-2030z"/>
<path d="M4336 4792 c0 -433 -1 -792 -3 -797 -2 -7 -217 -11 -658 -10 l-655 0
0 -70 c-1 -76 -1 -258 0 -511 l0 -161 653 -1 c358 0 654 -1 657 -1 3 -1 5
-387 5 -858 l0 -858 398 -3 397 -3 0 2030 0 2029 -398 1 -397 0 1 -787z"/>
</g>
</svg>
